<?xml version="1.0" standalone="no"?>
<!DOCTYPE svg PUBLIC "-//W3C//DTD SVG 20010904//EN"
 "http://www.w3.org/TR/2001/REC-SVG-20010904/DTD/svg10.dtd">
<svg version="1.0" xmlns="http://www.w3.org/2000/svg"
 width="512.000000pt" height="512.000000pt" viewBox="0 0 512.000000 512.000000"
 preserveAspectRatio="xMidYMid meet">

<g transform="translate(0.000000,512.000000) scale(0.100000,-0.100000)"
fill="#000000" stroke="none">
<path d="M2287 5099 c-129 -14 -297 -47 -426 -84 -1017 -292 -1744 -1168
-1842 -2219 -14 -157 -7 -460 16 -606 69 -447 265 -893 545 -1235 415 -508
998 -832 1655 -920 144 -20 457 -23 600 -6 367 43 779 185 1065 367 410 261
733 618 940 1039 160 325 234 600 260 966 34 478 -84 997 -323 1416 -407 712
-1117 1184 -1925 1278 -135 16 -433 18 -565 4z m385 -2424 c911 -1173 1061
-1371 1064 -1398 2 -12 0 -16 -2 -9 -3 6 -10 12 -15 12 -5 0 -8 -6 -7 -12 2
-7 -3 -12 -10 -10 -6 1 -11 -3 -10 -10 2 -7 -3 -12 -11 -13 -8 0 -16 -7 -18
-15 -4 -13 -3 -13 6 0 6 8 11 10 11 4 0 -18 -12 -24 -26 -13 -8 7 -14 6 -20
-2 -5 -8 -3 -9 6 -4 9 5 11 4 6 -3 -4 -7 -14 -12 -22 -12 -8 0 -14 -5 -14 -11
0 -5 5 -7 12 -3 7 4 8 3 4 -5 -6 -9 -11 -9 -24 1 -14 12 -14 10 -2 -12 l13
-25 -22 19 c-17 15 -20 16 -16 4 4 -9 1 -19 -6 -24 -7 -4 -10 -3 -6 4 5 6 0 8
-13 5 -11 -3 -20 -10 -20 -15 0 -5 4 -7 9 -3 5 3 13 1 16 -5 4 -6 3 -10 -2 -9
-23 4 -53 -2 -53 -11 0 -5 8 -7 18 -3 9 3 14 3 10 -1 -3 -4 -14 -9 -24 -10
-25 -4 -67 50 -1179 1487 l-440 569 -3 -801 -2 -801 -170 0 -170 0 0 1020 0
1020 216 -2 217 -3 699 -900z m930 528 c-4 -347 -9 -417 -30 -388 -4 6 -13 11
-21 13 -12 3 -12 1 0 -15 13 -17 12 -17 -15 1 -16 10 -26 14 -22 8 3 -5 -1
-12 -9 -15 -10 -4 -12 -1 -8 11 5 14 3 15 -7 5 -11 -10 -17 -10 -29 0 -10 8
-12 8 -8 1 4 -7 0 -14 -8 -17 -9 -4 -12 -1 -9 8 6 14 -12 15 -33 2 -7 -5 -13
-4 -13 0 0 12 -53 10 -62 -2 -5 -6 -8 -5 -8 3 0 8 -8 10 -25 6 l-25 -6 0 381
0 381 169 0 168 0 -5 -377z"/>
</g>
</svg>
