<svg xmlns="http://www.w3.org/2000/svg" viewBox="0 0 16 16" id="Arrow-Turn-Down--Streamline-Font-Awesome" height="16" width="16">
  <desc>
    Arrow Turn Down Streamline Icon: https://streamlinehq.com
  </desc>
<!--! Font Awesome Free 6.5.2 by @fontawesome - https://fontawesome.com License - https://fontawesome.com/license/free (Icons: CC BY 4.0, Fonts: SIL OFL 1.1, Code: MIT License) Copyright 2024 Fonticons, Inc.-->
  <path d="M3.5886375 2.120095833333333c-0.5420916666666666 0 -0.98005 -0.4379583333333333 -0.98005 -0.9800458333333333S3.046545833333333 0.15999999999999998 3.5886375 0.15999999999999998h2.9401416666666664c1.6232041666666666 0 2.9401458333333332 1.3169374999999999 2.9401458333333332 2.9401458333333332V12.493291666666666l2.247983333333333 -2.2479875c0.38282916666666666 -0.38282916666666666 1.00455 -0.38282916666666666 1.3873791666666666 0s0.38283333333333336 1.00455 0 1.3873833333333332l-3.9201916666666663 3.9201916666666663c-0.38282916666666666 0.38282916666666666 -1.0045458333333332 0.38282916666666666 -1.3873791666666666 0l-3.9201916666666663 -3.9201916666666663c-0.38282916666666666 -0.38283333333333336 -0.38282916666666666 -1.00455 0 -1.3873833333333332s1.00455 -0.38282916666666666 1.3873791666666666 0l2.244925 2.2479875 0 -9.393145833333332c0 -0.5420916666666666 -0.43796250000000003 -0.98005 -0.98005 -0.98005H3.5886375Z" fill="#000000" stroke-width="0.0417"></path>
</svg>